<svg width="1200" height="760" viewBox="0 0 1200 760" fill="none" xmlns="http://www.w3.org/2000/svg">
  <rect width="1200" height="760" fill="#07091A"/>
  <rect width="1200" height="760" fill="url(#bg)"/>
  <circle cx="980" cy="120" r="260" fill="#D4A843" fill-opacity="0.14"/>
  <circle cx="180" cy="650" r="320" fill="#4A7CBF" fill-opacity="0.16"/>
  <g opacity="0.18">
    <path d="M0 130H1200M0 260H1200M0 390H1200M0 520H1200M0 650H1200" stroke="#D4A843"/>
    <path d="M160 0V760M320 0V760M480 0V760M640 0V760M800 0V760M960 0V760M1120 0V760" stroke="#4A7CBF"/>
  </g>
  <rect x="140" y="115" width="920" height="530" rx="34" fill="#0D1226" fill-opacity="0.88" stroke="#D4A843" stroke-opacity="0.28" stroke-width="2"/>
  <rect x="185" y="160" width="830" height="430" rx="24" fill="#050816" stroke="#1E2A46" stroke-width="2"/>
  <rect x="225" y="205" width="300" height="38" rx="19" fill="#D4A843" fill-opacity="0.16"/>
  <text x="250" y="231" fill="#D4A843" font-family="Arial, Helvetica, sans-serif" font-size="18" font-weight="700" letter-spacing="3">PT STEDA ROASTER</text>
  <text x="225" y="315" fill="#F8F1D8" font-family="Georgia, serif" font-size="58" font-weight="700">Company Profile</text>
  <text x="225" y="370" fill="#F8F1D8" font-family="Georgia, serif" font-size="58" font-weight="700">&amp; CMS Website</text>
  <text x="228" y="420" fill="#8A93A7" font-family="Arial, Helvetica, sans-serif" font-size="23">Coffee roasting services, business profile, products,</text>
  <text x="228" y="455" fill="#8A93A7" font-family="Arial, Helvetica, sans-serif" font-size="23">and content management workflow.</text>
  <g transform="translate(760 250)">
    <circle cx="115" cy="115" r="110" fill="#111831" stroke="#D4A843" stroke-opacity="0.38" stroke-width="2"/>
    <path d="M91 164C55 139 49 83 83 53C76 89 111 100 104 132C130 100 122 76 110 50C160 74 177 127 139 164C125 176 105 176 91 164Z" fill="#D4A843" fill-opacity="0.92"/>
    <path d="M74 175H158" stroke="#F8F1D8" stroke-width="8" stroke-linecap="round"/>
    <path d="M86 189H146" stroke="#8A93A7" stroke-width="6" stroke-linecap="round"/>
  </g>
  <rect x="225" y="505" width="175" height="44" rx="22" fill="#D4A843"/>
  <text x="259" y="533" fill="#07091A" font-family="Arial, Helvetica, sans-serif" font-size="15" font-weight="700" letter-spacing="1.4">VIEW WEBSITE</text>
  <defs>
    <linearGradient id="bg" x1="0" y1="0" x2="1200" y2="760" gradientUnits="userSpaceOnUse">
      <stop stop-color="#02030A"/>
      <stop offset="0.46" stop-color="#0B1020"/>
      <stop offset="1" stop-color="#02040D"/>
    </linearGradient>
  </defs>
</svg>
